<svg width="329" height="329" viewBox="0 0 329 329" fill="none" xmlns="http://www.w3.org/2000/svg">
<path d="M164.5 277.417C226.862 277.417 277.417 226.862 277.417 164.5C277.417 102.138 226.862 51.5833 164.5 51.5833C102.138 51.5833 51.5834 102.138 51.5834 164.5C51.5834 226.862 102.138 277.417 164.5 277.417Z" stroke="#67D5F8" stroke-width="3"/>
<g filter="url(#filter0_f_4_74)">
<path d="M164.5 277.417C226.862 277.417 277.417 226.862 277.417 164.5C277.417 102.138 226.862 51.5833 164.5 51.5833C102.138 51.5833 51.5834 102.138 51.5834 164.5C51.5834 226.862 102.138 277.417 164.5 277.417Z" stroke="#67D5F8" stroke-width="3"/>
</g>
<g filter="url(#filter1_f_4_74)">
<path d="M164.5 277.417C226.862 277.417 277.417 226.862 277.417 164.5C277.417 102.138 226.862 51.5833 164.5 51.5833C102.138 51.5833 51.5834 102.138 51.5834 164.5C51.5834 226.862 102.138 277.417 164.5 277.417Z" stroke="#67D5F8" stroke-width="3"/>
</g>
<g filter="url(#filter2_f_4_74)">
<path d="M164.5 277.417C226.862 277.417 277.417 226.862 277.417 164.5C277.417 102.138 226.862 51.5833 164.5 51.5833C102.138 51.5833 51.5834 102.138 51.5834 164.5C51.5834 226.862 102.138 277.417 164.5 277.417Z" stroke="#67D5F8" stroke-width="3"/>
</g>
<g filter="url(#filter3_f_4_74)">
<path d="M164.5 277.417C226.862 277.417 277.417 226.862 277.417 164.5C277.417 102.138 226.862 51.5833 164.5 51.5833C102.138 51.5833 51.5834 102.138 51.5834 164.5C51.5834 226.862 102.138 277.417 164.5 277.417Z" stroke="#67D5F8" stroke-width="3"/>
</g>
<defs>
<filter id="filter0_f_4_74" x="0.083374" y="0.0833435" width="328.833" height="328.833" filterUnits="userSpaceOnUse" color-interpolation-filters="sRGB">
<feFlood flood-opacity="0" result="BackgroundImageFix"/>
<feBlend mode="normal" in="SourceGraphic" in2="BackgroundImageFix" result="shape"/>
<feGaussianBlur stdDeviation="25" result="effect1_foregroundBlur_4_74"/>
</filter>
<filter id="filter1_f_4_74" x="25.0834" y="25.0833" width="278.833" height="278.833" filterUnits="userSpaceOnUse" color-interpolation-filters="sRGB">
<feFlood flood-opacity="0" result="BackgroundImageFix"/>
<feBlend mode="normal" in="SourceGraphic" in2="BackgroundImageFix" result="shape"/>
<feGaussianBlur stdDeviation="12.5" result="effect1_foregroundBlur_4_74"/>
</filter>
<filter id="filter2_f_4_74" x="35.0834" y="35.0833" width="258.833" height="258.833" filterUnits="userSpaceOnUse" color-interpolation-filters="sRGB">
<feFlood flood-opacity="0" result="BackgroundImageFix"/>
<feBlend mode="normal" in="SourceGraphic" in2="BackgroundImageFix" result="shape"/>
<feGaussianBlur stdDeviation="7.5" result="effect1_foregroundBlur_4_74"/>
</filter>
<filter id="filter3_f_4_74" x="40.0834" y="40.0833" width="248.833" height="248.833" filterUnits="userSpaceOnUse" color-interpolation-filters="sRGB">
<feFlood flood-opacity="0" result="BackgroundImageFix"/>
<feBlend mode="normal" in="SourceGraphic" in2="BackgroundImageFix" result="shape"/>
<feGaussianBlur stdDeviation="5" result="effect1_foregroundBlur_4_74"/>
</filter>
</defs>
</svg>
