<svg width="320" height="321" viewBox="0 0 320 321" fill="none" xmlns="http://www.w3.org/2000/svg">
<path d="M71.9203 88.7661C67.6851 93.0012 65.3058 98.7454 65.3058 104.735C65.3058 110.724 67.6851 116.468 71.9203 120.704L111.842 160.626L71.9203 200.548C67.6851 204.783 65.3058 210.527 65.3058 216.516C65.3058 222.506 67.6851 228.25 71.9203 232.485L87.8891 248.454C96.6719 257.237 111.044 257.237 119.827 248.454L159.749 208.532L199.671 248.454C208.454 257.237 222.825 257.237 231.608 248.454L247.577 232.485C251.812 228.25 254.192 222.506 254.192 216.516C254.192 210.527 251.812 204.783 247.577 200.548L207.655 160.626L247.577 120.704C251.812 116.468 254.192 110.724 254.192 104.735C254.192 98.7454 251.812 93.0012 247.577 88.7661L231.608 72.7972C227.373 68.5621 221.629 66.1828 215.64 66.1828C209.65 66.1828 203.906 68.5621 199.671 72.7972L159.749 112.719L119.827 72.7972C115.592 68.5621 109.847 66.1828 103.858 66.1828C97.8684 66.1828 92.1243 68.5621 87.8891 72.7972L71.9203 88.7661Z" stroke="#F2B948" stroke-width="3" stroke-linecap="round" stroke-linejoin="round"/>
<g filter="url(#filter0_f_4_69)">
<path d="M71.9203 88.7661C67.6851 93.0012 65.3058 98.7454 65.3058 104.735C65.3058 110.724 67.6851 116.468 71.9203 120.704L111.842 160.626L71.9203 200.548C67.6851 204.783 65.3058 210.527 65.3058 216.516C65.3058 222.506 67.6851 228.25 71.9203 232.485L87.8891 248.454C96.6719 257.237 111.044 257.237 119.827 248.454L159.749 208.532L199.671 248.454C208.454 257.237 222.825 257.237 231.608 248.454L247.577 232.485C251.812 228.25 254.192 222.506 254.192 216.516C254.192 210.527 251.812 204.783 247.577 200.548L207.655 160.626L247.577 120.704C251.812 116.468 254.192 110.724 254.192 104.735C254.192 98.7454 251.812 93.0012 247.577 88.7661L231.608 72.7972C227.373 68.5621 221.629 66.1828 215.64 66.1828C209.65 66.1828 203.906 68.5621 199.671 72.7972L159.749 112.719L119.827 72.7972C115.592 68.5621 109.847 66.1828 103.858 66.1828C97.8684 66.1828 92.1243 68.5621 87.8891 72.7972L71.9203 88.7661Z" stroke="#F2B948" stroke-width="3" stroke-linecap="round" stroke-linejoin="round"/>
</g>
<g filter="url(#filter1_f_4_69)">
<path d="M71.9203 88.7661C67.6851 93.0012 65.3058 98.7454 65.3058 104.735C65.3058 110.724 67.6851 116.468 71.9203 120.704L111.842 160.626L71.9203 200.548C67.6851 204.783 65.3058 210.527 65.3058 216.516C65.3058 222.506 67.6851 228.25 71.9203 232.485L87.8891 248.454C96.6719 257.237 111.044 257.237 119.827 248.454L159.749 208.532L199.671 248.454C208.454 257.237 222.825 257.237 231.608 248.454L247.577 232.485C251.812 228.25 254.192 222.506 254.192 216.516C254.192 210.527 251.812 204.783 247.577 200.548L207.655 160.626L247.577 120.704C251.812 116.468 254.192 110.724 254.192 104.735C254.192 98.7454 251.812 93.0012 247.577 88.7661L231.608 72.7972C227.373 68.5621 221.629 66.1828 215.64 66.1828C209.65 66.1828 203.906 68.5621 199.671 72.7972L159.749 112.719L119.827 72.7972C115.592 68.5621 109.847 66.1828 103.858 66.1828C97.8684 66.1828 92.1243 68.5621 87.8891 72.7972L71.9203 88.7661Z" stroke="#F2B948" stroke-width="3" stroke-linecap="round" stroke-linejoin="round"/>
</g>
<g filter="url(#filter2_f_4_69)">
<path d="M71.9203 88.7661C67.6851 93.0012 65.3058 98.7454 65.3058 104.735C65.3058 110.724 67.6851 116.468 71.9203 120.704L111.842 160.626L71.9203 200.548C67.6851 204.783 65.3058 210.527 65.3058 216.516C65.3058 222.506 67.6851 228.25 71.9203 232.485L87.8891 248.454C96.6719 257.237 111.044 257.237 119.827 248.454L159.749 208.532L199.671 248.454C208.454 257.237 222.825 257.237 231.608 248.454L247.577 232.485C251.812 228.25 254.192 222.506 254.192 216.516C254.192 210.527 251.812 204.783 247.577 200.548L207.655 160.626L247.577 120.704C251.812 116.468 254.192 110.724 254.192 104.735C254.192 98.7454 251.812 93.0012 247.577 88.7661L231.608 72.7972C227.373 68.5621 221.629 66.1828 215.64 66.1828C209.65 66.1828 203.906 68.5621 199.671 72.7972L159.749 112.719L119.827 72.7972C115.592 68.5621 109.847 66.1828 103.858 66.1828C97.8684 66.1828 92.1243 68.5621 87.8891 72.7972L71.9203 88.7661Z" stroke="#F2B948" stroke-width="3" stroke-linecap="round" stroke-linejoin="round"/>
</g>
<g filter="url(#filter3_f_4_69)">
<path d="M71.9203 88.7661C67.6851 93.0012 65.3058 98.7454 65.3058 104.735C65.3058 110.724 67.6851 116.468 71.9203 120.704L111.842 160.626L71.9203 200.548C67.6851 204.783 65.3058 210.527 65.3058 216.516C65.3058 222.506 67.6851 228.25 71.9203 232.485L87.8891 248.454C96.6719 257.237 111.044 257.237 119.827 248.454L159.749 208.532L199.671 248.454C208.454 257.237 222.825 257.237 231.608 248.454L247.577 232.485C251.812 228.25 254.192 222.506 254.192 216.516C254.192 210.527 251.812 204.783 247.577 200.548L207.655 160.626L247.577 120.704C251.812 116.468 254.192 110.724 254.192 104.735C254.192 98.7454 251.812 93.0012 247.577 88.7661L231.608 72.7972C227.373 68.5621 221.629 66.1828 215.64 66.1828C209.65 66.1828 203.906 68.5621 199.671 72.7972L159.749 112.719L119.827 72.7972C115.592 68.5621 109.847 66.1828 103.858 66.1828C97.8684 66.1828 92.1243 68.5621 87.8891 72.7972L71.9203 88.7661Z" stroke="#F2B948" stroke-width="3" stroke-linecap="round" stroke-linejoin="round"/>
</g>
<defs>
<filter id="filter0_f_4_69" x="13.8058" y="14.6828" width="291.886" height="291.858" filterUnits="userSpaceOnUse" color-interpolation-filters="sRGB">
<feFlood flood-opacity="0" result="BackgroundImageFix"/>
<feBlend mode="normal" in="SourceGraphic" in2="BackgroundImageFix" result="shape"/>
<feGaussianBlur stdDeviation="25" result="effect1_foregroundBlur_4_69"/>
</filter>
<filter id="filter1_f_4_69" x="38.8058" y="39.6828" width="241.886" height="241.858" filterUnits="userSpaceOnUse" color-interpolation-filters="sRGB">
<feFlood flood-opacity="0" result="BackgroundImageFix"/>
<feBlend mode="normal" in="SourceGraphic" in2="BackgroundImageFix" result="shape"/>
<feGaussianBlur stdDeviation="12.5" result="effect1_foregroundBlur_4_69"/>
</filter>
<filter id="filter2_f_4_69" x="48.8058" y="49.6828" width="221.886" height="221.858" filterUnits="userSpaceOnUse" color-interpolation-filters="sRGB">
<feFlood flood-opacity="0" result="BackgroundImageFix"/>
<feBlend mode="normal" in="SourceGraphic" in2="BackgroundImageFix" result="shape"/>
<feGaussianBlur stdDeviation="7.5" result="effect1_foregroundBlur_4_69"/>
</filter>
<filter id="filter3_f_4_69" x="53.8058" y="54.6828" width="211.886" height="211.858" filterUnits="userSpaceOnUse" color-interpolation-filters="sRGB">
<feFlood flood-opacity="0" result="BackgroundImageFix"/>
<feBlend mode="normal" in="SourceGraphic" in2="BackgroundImageFix" result="shape"/>
<feGaussianBlur stdDeviation="5" result="effect1_foregroundBlur_4_69"/>
</filter>
</defs>
</svg>
